<svg xmlns="http://www.w3.org/2000/svg" fill="none" viewBox="0 0 512 511" version="1.1"><path d="" stroke="none" fill="currentColor" fill-rule="evenodd"/><path d="M 461 0.621 C 446.477 3.418, 430.802 9.426, 418.500 16.912 C 401.580 27.207, 395.059 32.911, 356.500 71.144 L 317.500 109.815 300.500 106.921 C 291.150 105.329, 283.058 104.020, 282.518 104.013 C 281.978 104.006, 286.122 99.387, 291.728 93.750 C 298.536 86.903, 302.623 81.898, 304.040 78.675 C 314.977 53.785, 291.027 28.544, 265.500 38.056 C 259.988 40.110, 257.384 42.389, 233.500 66.057 L 207.500 91.822 125.500 78.388 C 35.629 63.664, 32.041 63.293, 22.924 67.765 C 15.501 71.407, 10.375 76.492, 6.792 83.771 C 3.886 89.674, 3.503 91.398, 3.528 98.479 C 3.551 105.102, 4.040 107.546, 6.332 112.500 C 7.859 115.800, 10.482 119.921, 12.161 121.658 C 13.841 123.395, 52.711 151.970, 98.539 185.158 L 181.864 245.500 161.105 266.500 C 140.932 286.908, 133.996 295.087, 123.092 311.326 C 119.615 316.503, 117.361 318.969, 116.430 318.612 C 115.657 318.315, 98.031 313.027, 77.262 306.860 C 44.155 297.031, 38.572 295.643, 31.970 295.600 C 22.896 295.540, 15.732 298.555, 9.149 305.205 C 2.307 312.115, 0.497 316.892, 0.515 328 C 0.528 336.320, 0.858 338.126, 3.175 342.540 C 4.630 345.312, 7.774 349.362, 10.161 351.540 C 12.547 353.718, 28.104 364.868, 44.732 376.317 C 61.360 387.766, 75.205 397.523, 75.499 397.999 C 75.794 398.475, 72.716 406.658, 68.659 416.182 C 57.823 441.626, 57.526 442.527, 58.589 446.719 C 59.719 451.171, 63.897 454.438, 68.254 454.275 C 71.277 454.162, 91.513 446.328, 107.408 439.116 C 111.207 437.393, 114.398 436.099, 114.499 436.241 C 114.600 436.384, 124.276 450.450, 136.001 467.500 C 159.060 501.029, 161.239 503.800, 167.946 508.130 C 172.203 510.878, 172.894 511, 184.236 511 C 197.676 511, 200.694 510.001, 207.350 503.348 C 213.377 497.323, 216.258 490.772, 216.738 482 C 217.131 474.811, 216.667 472.874, 205.574 435.319 C 199.208 413.770, 194 395.695, 194 395.153 C 194 394.610, 198.162 391.358, 203.250 387.925 C 218.989 377.305, 224.814 372.317, 246.224 351.126 C 257.622 339.845, 267.116 330.814, 267.322 331.057 C 267.527 331.301, 294.344 368.400, 326.914 413.500 C 359.485 458.600, 388.347 497.603, 391.053 500.173 C 398.063 506.832, 405.152 509.322, 415.500 508.758 C 428.800 508.033, 439.210 501.220, 444.515 489.770 C 449.231 479.591, 449.392 481.197, 434.459 389.447 L 420.692 304.860 445.792 279.680 C 466.985 258.419, 471.312 253.581, 473.590 248.595 C 480.423 233.641, 474.654 216.783, 460.132 209.265 C 454.841 206.526, 452.740 206, 447.091 206 C 435.792 206, 431.944 207.948, 419.746 219.840 C 413.831 225.607, 408.831 230.139, 408.635 229.912 C 408.439 229.686, 407.050 221.679, 405.548 212.120 L 402.819 194.740 440.742 156.620 C 480.242 116.915, 487.465 108.532, 497.084 91.225 C 507.430 72.610, 511.981 57.690, 511.993 42.355 C 512.013 16.743, 497.575 1.436, 472.500 0.482 C 467.550 0.294, 462.375 0.357, 461 0.621 M 456.773 22.935 C 448.985 25.035, 438.985 28.943, 439.033 29.866 C 439.051 30.215, 443.087 32.415, 448.001 34.754 C 462.401 41.611, 473.573 53.435, 479.963 68.582 L 482.601 74.834 485.781 66.667 C 490.175 55.383, 491.265 50.620, 491.311 42.500 C 491.373 31.734, 487.643 25.263, 479.682 22.326 C 474.979 20.591, 464.423 20.872, 456.773 22.935 M 285.217 171.250 C 217.357 239.037, 158.911 298.100, 155.337 302.500 C 137.319 324.683, 116.096 361.445, 96.523 404.376 C 91.790 414.758, 88.049 423.610, 88.209 424.046 C 88.566 425.019, 114.792 413.196, 136.625 402.220 C 167.157 386.871, 192.251 371.452, 209.500 357.444 C 223.624 345.974, 463.707 105.141, 464.589 101.559 C 464.987 99.941, 464.801 94.791, 464.175 90.114 C 460.780 64.737, 441.708 48.053, 416.049 48.012 L 408.598 48 285.217 171.250 M 253.333 76.192 C 242.727 86.747, 234.247 95.580, 234.487 95.821 C 234.728 96.061, 239.779 97.062, 245.712 98.045 L 256.500 99.832 271.250 85.100 C 284.801 71.565, 286 70.075, 286 66.761 C 286 61.229, 281.979 57, 276.720 57 C 272.728 57, 272.093 57.521, 253.333 76.192 M 32.500 86.388 C 24.653 89.938, 21.561 99.374, 26.161 105.734 C 28.287 108.674, 194.794 230, 196.702 230 C 197.145 230, 220.425 207.079, 248.435 179.065 C 294.204 133.290, 299.117 128.071, 296.932 127.549 C 294.763 127.032, 47.622 86.775, 39 85.534 C 37.074 85.257, 34.151 85.641, 32.500 86.388 M 341.291 156.250 C 325.166 172.144, 323 174.941, 323 179.874 C 323 183.640, 327.131 188.650, 330.923 189.483 C 335.954 190.588, 340.103 187.630, 355.637 171.864 C 372.162 155.091, 373.464 152.888, 370.521 146.685 C 368.671 142.787, 365.470 141, 360.334 141 C 357.071 141, 355.426 142.317, 341.291 156.250 M 301 198.068 C 297.845 199.352, 269.387 227.512, 267.343 231.371 C 263.865 237.942, 269.292 246, 277.196 246 C 281.066 246, 281.897 245.350, 296.709 230.750 C 305.219 222.363, 312.815 214.285, 313.590 212.800 C 318.039 204.278, 309.704 194.527, 301 198.068 M 333.157 264.343 L 281.816 315.691 342.499 399.595 C 375.874 445.743, 404.077 484.276, 405.171 485.225 C 412.738 491.787, 425.414 487.146, 426.647 477.362 C 426.950 474.956, 419.178 424.657, 406.040 344 C 394.439 272.775, 384.846 214.161, 384.723 213.747 C 384.599 213.333, 361.395 236.101, 333.157 264.343 M 442.500 227.415 C 440.850 228.175, 433.469 234.880, 426.097 242.315 L 412.694 255.834 414.597 267.434 L 416.500 279.034 435.778 259.729 C 451.967 243.519, 455.150 239.851, 455.637 236.849 C 456.122 233.859, 455.750 232.768, 453.359 230.173 C 449.906 226.427, 446.515 225.565, 442.500 227.415 M 243.110 255.396 C 238.252 258.088, 236.494 265.405, 239.631 269.883 C 244.433 276.740, 255.417 275.325, 257.994 267.519 C 259.451 263.103, 258.421 259.532, 254.814 256.497 C 251.507 253.714, 246.922 253.283, 243.110 255.396 M 27.096 317.265 C 21.003 320.396, 18.655 329.476, 22.614 334.600 C 23.651 335.943, 38.186 346.495, 54.913 358.050 L 85.326 379.059 95.163 359.881 C 100.574 349.334, 105.515 340.084, 106.143 339.328 C 106.771 338.571, 107.108 337.793, 106.893 337.600 C 105.891 336.702, 33.931 316.002, 31.856 316.015 C 30.560 316.023, 28.418 316.585, 27.096 317.265 M 165.500 410.602 C 161.100 413.071, 152.213 417.774, 145.750 421.053 C 139.287 424.332, 134 427.252, 134 427.541 C 134 427.831, 143.499 441.791, 155.110 458.565 C 169.108 478.788, 177.177 489.557, 179.060 490.531 C 182.684 492.405, 186.332 492.397, 189.989 490.506 C 194.079 488.391, 196.003 485.189, 195.983 480.527 C 195.964 475.895, 175.895 406.770, 174.454 406.374 C 173.929 406.230, 169.900 408.133, 165.500 410.602" stroke="none" fill="currentColor" fill-rule="evenodd"/></svg>