<svg xmlns="http://www.w3.org/2000/svg" fill="none" viewBox="0 0 512 512" version="1.1"><path d="" stroke="none" fill="currentColor" fill-rule="evenodd"/><path d="M 79.024 100.603 C 68.395 103.459, 60.517 109.993, 58.141 117.922 C 56.623 122.992, 56.645 148.127, 58.171 151.477 C 58.816 152.891, 60.278 154.265, 61.421 154.529 C 62.565 154.794, 95.225 155.121, 134 155.255 C 212.509 155.528, 208.155 155.140, 215.295 162.492 C 220.141 167.482, 221.513 171.851, 221.422 182 C 221.337 191.396, 219.543 196.260, 214.342 201.197 C 208.032 207.185, 210.624 207, 133.167 207 C 62.601 207, 62.257 207.010, 59.593 209.105 C 57.076 211.085, 56.934 211.637, 57.208 218.355 C 57.667 229.589, 54.559 228.997, 113.071 228.998 L 161.641 229 167.064 231.750 C 170.458 233.471, 173.525 235.998, 175.260 238.503 C 180.945 246.713, 180.973 263.390, 175.314 270.855 C 167.570 281.069, 168.005 281, 111.269 281 C 61.363 281, 59.298 281.175, 57.621 285.545 C 57.280 286.435, 57 300.997, 57 317.904 C 57 353.548, 57.331 355.426, 64.952 363.048 C 71.156 369.251, 76.550 371, 89.478 371 C 100.898 371, 102 370.458, 102 364.849 C 102 358.319, 104.054 350.764, 108.178 342.128 C 117.550 322.501, 137.684 310.030, 160 310.030 C 191.501 310.030, 216.233 334.005, 218.251 366.500 L 218.500 370.500 278.500 370.500 L 338.500 370.500 339.252 363.500 C 341.833 339.459, 356.308 320.814, 378.568 312.856 C 386.759 309.928, 401.262 309.272, 410.387 311.416 C 431.124 316.290, 448.081 332.857, 453.457 353.495 C 454.305 356.754, 455 361.314, 455 363.628 C 455 371.331, 454.154 371.001, 473.857 370.990 C 490.270 370.981, 491.848 370.817, 496.500 368.634 C 502.020 366.043, 505.854 362.579, 509.257 357.107 C 511.453 353.575, 511.506 352.771, 511.797 318.411 C 512.116 280.730, 511.487 273.768, 506.906 264.306 C 503.932 258.162, 499.262 255.424, 484.290 251.049 C 459.050 243.673, 459.626 244.233, 442.868 210.736 C 429.225 183.467, 426.020 178.788, 417.022 173.014 C 407.310 166.782, 402.442 165.709, 381 165.076 L 361.500 164.500 360.973 141 C 360.385 114.767, 359.708 111.779, 352.872 105.293 C 345.849 98.628, 354.085 98.993, 212.624 99.066 C 103.135 99.122, 83.704 99.346, 79.024 100.603 M 35.190 168.026 C 30.673 170.779, 28.631 175.993, 29.277 183.120 C 29.558 186.214, 30.513 189.853, 31.400 191.207 C 34.998 196.698, 31.666 196.500, 120.401 196.500 C 200.210 196.500, 202.581 196.445, 205.386 194.546 C 206.974 193.471, 208.886 191.123, 209.636 189.328 C 211.468 184.945, 211.362 176.564, 209.423 172.478 C 206.217 165.723, 210.049 166, 119.849 166.004 C 40.020 166.007, 38.438 166.045, 35.190 168.026 M 361.488 185.170 C 361.203 185.912, 361.090 200.465, 361.235 217.510 L 361.500 248.500 399.497 248.762 C 420.395 248.907, 438 248.830, 438.618 248.593 C 439.294 248.334, 434.959 238.652, 427.756 224.331 C 414.142 197.266, 411.557 193.894, 400.057 188.191 L 392.613 184.500 377.310 184.160 C 365.150 183.890, 361.900 184.098, 361.488 185.170 M 3.400 243.400 C 0.122 246.678, 0 247.077, 0 254.496 C 0 263.108, 1.734 266.819, 6.726 268.887 C 8.757 269.728, 29.979 269.965, 85.687 269.769 L 161.869 269.500 164.896 266.600 C 170.408 261.319, 170.391 248.545, 164.865 243.018 L 161.846 240 84.323 240 L 6.800 240 3.400 243.400 M 147.465 324.473 C 127.772 330.698, 115 347.822, 115 368 C 115 392.950, 135.050 413, 160 413 C 184.910 413, 205.025 392.922, 204.989 368.093 C 204.960 347.478, 192.185 330.514, 172.099 324.418 C 166.474 322.710, 152.945 322.741, 147.465 324.473 M 383.449 324.945 C 375.498 327.775, 372.008 329.879, 366.287 335.290 C 350.749 349.985, 347.574 372.965, 358.575 391.112 C 378.833 424.530, 428.055 418.468, 440.492 381.025 C 442.849 373.929, 442.666 361.139, 440.103 353.751 C 435.198 339.615, 423.913 328.724, 409.836 324.544 C 402.808 322.457, 389.884 322.653, 383.449 324.945 M 152.500 350.393 C 148.333 352.218, 143.264 357.669, 141.906 361.783 C 140.375 366.425, 141.274 374.550, 143.675 377.767 C 144.750 379.206, 147.330 381.760, 149.408 383.442 C 152.785 386.176, 153.891 386.498, 159.843 386.477 C 165.203 386.458, 167.205 385.982, 170.116 384.030 C 176.278 379.898, 178.500 375.648, 178.500 367.988 C 178.500 362.289, 178.087 360.733, 175.638 357.200 C 170.680 350.044, 160.279 346.985, 152.500 350.393 M 389.500 350.417 C 383.298 353.186, 377.977 361.438, 378.022 368.218 C 378.052 372.776, 381.124 379.085, 384.832 382.205 C 397.472 392.841, 416 384.185, 416 367.644 C 416 362.680, 413.554 356.712, 410.320 353.788 C 405.368 349.310, 395.544 347.719, 389.500 350.417" stroke="none" fill="currentColor" fill-rule="evenodd"/></svg>