<svg xmlns="http://www.w3.org/2000/svg" fill="none" viewBox="0 0 300 234" version="1.1"><path d="" stroke="none" fill="currentColor" fill-rule="evenodd"/><path d="M 203.173 1.220 C 201.342 1.833, 197.631 4.325, 194.924 6.758 C 191.063 10.230, 189.659 12.366, 188.406 16.676 C 186.708 22.517, 187.105 27.878, 189.512 31.620 C 191.612 34.885, 215.586 48, 219.453 48 C 222.877 48, 226 45.488, 226 42.735 C 226 41.851, 223.343 39.264, 220.096 36.987 C 216.849 34.709, 213.951 31.922, 213.656 30.793 C 212.860 27.750, 215.095 17.901, 216.722 17.276 C 217.497 16.979, 221.240 17.955, 225.040 19.446 C 234.035 22.975, 235.524 22.665, 235.419 17.284 C 235.321 12.315, 231.833 7.241, 225.742 3.211 C 222.299 0.932, 220.439 0.469, 214.073 0.303 C 209.908 0.195, 205.003 0.607, 203.173 1.220 M 183.357 38.091 C 172.415 41.262, 157.957 63.440, 147.471 93.140 C 145.071 99.938, 143.083 104.787, 143.053 103.915 C 143.024 103.043, 144.575 92.795, 146.500 81.141 C 148.425 69.487, 150 58.638, 150 57.033 C 150 51.207, 148.808 51, 115.277 51 C 87.748 51, 84.841 51.159, 83.246 52.754 C 81.970 54.030, 79.878 63.161, 75.573 86.235 C 69.816 117.094, 69.705 118.016, 71.482 119.980 C 73.243 121.926, 74.477 122, 105.155 122 C 135.667 122, 137.084 121.916, 139 120 C 140.128 118.872, 141 116.667, 141 114.941 C 141 113.156, 141.417 112.139, 142 112.500 C 142.550 112.840, 143 114.036, 143 115.159 C 143 116.282, 144.530 118.730, 146.400 120.600 L 149.800 124 127.511 124 C 107.490 124, 104.994 124.184, 102.986 125.810 C 100.507 127.817, 100.019 132.113, 101.997 134.497 C 103.067 135.786, 108.633 136, 141.066 136 C 178.670 136, 178.895 135.988, 180.397 133.843 C 181.848 131.771, 182.114 131.742, 187.102 133.093 C 189.958 133.867, 192.777 135.269, 193.366 136.208 C 194.637 138.236, 194.027 140.790, 186.907 163.250 C 182.079 178.480, 181.825 179, 179.207 178.994 C 174.475 178.985, 169.334 177.061, 166.520 174.247 C 162.419 170.146, 163.266 163.657, 169.511 151.324 C 173.240 143.961, 174.111 141.399, 173.315 140.137 C 172.400 138.686, 168.633 138.470, 140.078 138.236 C 122.365 138.091, 107.154 138.374, 106.275 138.866 C 105.397 139.357, 104.189 141.276, 103.589 143.130 C 102.642 146.062, 101.332 147.062, 93.521 150.823 C 81.704 156.514, 70.348 167.656, 64.728 179.075 C 60.744 187.169, 60.200 190.091, 62.345 191.872 C 63.306 192.669, 87.106 193.061, 145.595 193.244 L 227.500 193.500 228.355 197.500 C 229.700 203.796, 230.822 206, 232.683 206 C 234.174 206, 282.724 179.778, 293.250 173.287 C 298.247 170.206, 298.213 167.328, 293.125 162.732 C 287.364 157.527, 281.369 154.358, 273.116 152.155 C 265.122 150.021, 264.039 149.103, 264.015 144.438 C 263.991 139.615, 260.270 126.613, 255.361 114.202 C 252.884 107.939, 251.100 102.181, 251.397 101.407 C 251.748 100.492, 253.479 100, 256.346 100 C 258.947 100, 261.241 99.414, 261.941 98.571 C 262.593 97.786, 263.610 92.538, 264.202 86.909 C 265.491 74.635, 264.996 73.835, 256.639 74.698 C 249.709 75.413, 248.507 73.964, 248.479 64.861 C 248.455 56.970, 246.966 54.667, 241.892 54.667 C 238.444 54.667, 235 57.819, 235 60.976 C 235 63.515, 238.831 68, 241 68 C 242.020 68, 243.821 69.229, 245.002 70.730 L 247.150 73.460 244.964 75.230 C 243.762 76.204, 242.109 77, 241.290 77 C 240.472 77, 238.283 77.721, 236.426 78.602 C 233.324 80.074, 232.265 80.070, 223.370 78.554 C 209.112 76.124, 210.489 77.717, 206.028 58.500 C 201.890 40.675, 195.206 34.658, 183.357 38.091 M 28.473 68.044 C 28.118 68.618, 28.379 69.751, 29.052 70.563 C 30.076 71.797, 33.887 71.994, 52.388 71.769 C 74.465 71.500, 74.501 71.496, 74.820 69.250 L 75.139 67 52.129 67 C 37.223 67, 28.891 67.368, 28.473 68.044 M 190.648 79.188 C 189.834 80.460, 187.044 86.105, 184.448 91.733 C 180.909 99.406, 180 102.295, 180.817 103.279 C 181.416 104.001, 190.065 108.133, 200.039 112.462 C 211.818 117.574, 218.684 121.114, 219.634 122.563 C 220.988 124.631, 220.356 126.759, 211.043 151.485 C 205.514 166.164, 201.244 178.586, 201.554 179.087 C 202.673 180.899, 211.019 180.024, 215.817 177.593 C 225.454 172.709, 232.738 163.276, 236.256 151.123 C 239.396 140.276, 240.017 97.882, 237.105 93.170 C 236.561 92.290, 230.646 91.287, 219.183 90.131 C 209.772 89.182, 201.770 88.103, 201.400 87.733 C 201.030 87.364, 199.327 84.940, 197.614 82.349 C 193.888 76.709, 192.606 76.128, 190.648 79.188 M 16.667 84.667 C 16.300 85.033, 16 86.158, 16 87.167 C 16 88.899, 17.482 89, 42.893 89 C 64.819 89, 69.884 88.745, 70.315 87.622 C 71.565 84.364, 68.813 84, 42.967 84 C 28.868 84, 17.033 84.300, 16.667 84.667 M 6.342 102.552 C 6.008 103.422, 6.161 104.561, 6.683 105.083 C 7.250 105.650, 19.276 105.924, 36.566 105.766 C 64.745 105.507, 65.500 105.448, 65.500 103.500 C 65.500 101.552, 64.745 101.493, 36.224 101.235 C 10.290 101, 6.880 101.150, 6.342 102.552 M 36.342 143.552 C 36.008 144.422, 36.161 145.561, 36.683 146.083 C 37.250 146.650, 49.086 146.925, 66.066 146.766 C 93.745 146.507, 94.500 146.447, 94.500 144.500 C 94.500 142.552, 93.745 142.493, 65.725 142.235 C 40.244 142, 36.879 142.150, 36.342 143.552 M 11.323 160.601 C 10.985 161.481, 11.337 162.600, 12.104 163.086 C 13.926 164.239, 69.074 164.239, 70.896 163.086 C 71.663 162.600, 72.015 161.481, 71.677 160.601 C 71.133 159.183, 67.684 159, 41.500 159 C 15.316 159, 11.867 159.183, 11.323 160.601 M 287.750 180.509 C 283.504 183.411, 283.155 185.204, 286 189.500 C 290.718 196.624, 286.858 209.598, 278.430 214.942 C 272.849 218.482, 268.208 219.402, 263.008 218.002 C 258.120 216.686, 252.432 211.245, 251.498 206.992 C 250.548 202.665, 248.896 202.387, 243.048 205.570 C 238.420 208.089, 238.002 208.617, 238.022 211.909 C 238.071 219.988, 245.225 229.011, 254.343 232.493 C 260.476 234.835, 270.600 234.161, 277.500 230.950 C 284.979 227.471, 295.233 216.662, 297.965 209.379 C 302.061 198.459, 299.273 179.024, 293.496 178.223 C 292.398 178.071, 289.813 179.100, 287.750 180.509 M 0.682 179.652 C 0.307 180.027, -0 181.158, -0 182.167 C -0 183.903, 1.563 184, 29.570 184 L 59.139 184 58.820 181.750 L 58.500 179.500 29.932 179.235 C 14.219 179.089, 1.057 179.277, 0.682 179.652 M 83.018 198.203 C 80.015 203.128, 80.259 212.121, 83.578 218.780 C 86.602 224.848, 90.489 228.395, 97.797 231.755 C 102.485 233.910, 104.154 234.143, 112.297 233.782 C 123.721 233.275, 130.992 230.611, 137.901 224.399 C 143.527 219.341, 147.483 212.100, 148.988 204.105 C 150.344 196.901, 149.399 195.819, 142.090 196.205 L 136.500 196.500 135.907 202.700 C 135.159 210.520, 131.795 215.255, 124.617 218.598 C 115.424 222.878, 104.890 220.862, 99.901 213.867 C 97.913 211.079, 97.481 209.209, 97.391 203 L 97.283 195.500 91.156 195.203 C 85.173 194.912, 84.981 194.983, 83.018 198.203" stroke="none" fill="currentColor" fill-rule="evenodd"/></svg>