<svg xmlns="http://www.w3.org/2000/svg" fill="none" viewBox="0 0 512 512" version="1.1"><path d="" stroke="none" fill="currentColor" fill-rule="evenodd"/><path d="M 0 146 L 0 256 73.129 256 L 146.258 256 145.565 265.250 C 142.455 306.770, 123.123 343.919, 91.377 369.381 C 68.316 387.876, 42.169 398.399, 12.275 401.217 L 0 402.373 0 439.323 L 0 476.273 10.750 475.585 C 57.227 472.610, 97.312 457.740, 134.478 429.688 C 144.792 421.903, 165.903 400.792, 173.688 390.478 C 197.070 359.500, 210.996 326.994, 217.637 287.901 C 219.244 278.438, 219.434 266.615, 219.743 156.750 L 220.083 36 110.041 36 L 0 36 0 146 M 292 146 L 292 256 365.153 256 L 438.306 256 437.657 267.250 C 436.384 289.311, 428.120 314.791, 416.198 333.409 C 390.569 373.436, 349.166 397.971, 301.132 401.598 L 292 402.287 292 439.143 L 292 476 295.750 475.991 C 304.673 475.971, 323.479 473.805, 335.500 471.413 C 420.228 454.552, 488.243 388.209, 506.963 304.166 C 511.934 281.848, 512 279.890, 512 153.949 L 512 36 402 36 L 292 36 292 146" stroke="none" fill="currentColor" fill-rule="evenodd"/></svg>