<svg xmlns="http://www.w3.org/2000/svg" fill="none" viewBox="0 0 512 512" version="1.1"><path d="" stroke="none" fill="currentColor" fill-rule="evenodd"/><path d="M 64.861 104.911 L 62.500 106.823 62.224 177.911 L 61.948 249 41.974 249 C 23.333 249, 21.866 249.134, 20 251 C 18.044 252.956, 18 254.333, 18 313.889 C 18 372.332, 18.077 374.873, 19.910 377.139 C 21.801 379.476, 22.050 379.503, 44.660 379.834 L 67.500 380.169 71 385.141 C 72.925 387.876, 77.266 392.340, 80.648 395.061 C 101.297 411.681, 128.894 413.555, 151.586 399.877 C 157.024 396.599, 171 383.008, 171 380.997 C 171 380.342, 200.171 380, 256 380 C 311.829 380, 341 380.342, 341 380.997 C 341 383.008, 354.976 396.599, 360.414 399.877 C 374.033 408.086, 392.073 411.142, 406 407.600 C 420.292 403.965, 433.827 395.272, 441 385.121 L 444.500 380.169 467.340 379.834 C 489.950 379.503, 490.199 379.476, 492.090 377.139 C 493.929 374.866, 494 372.201, 494 305.544 C 494 237.014, 493.979 236.291, 491.950 234.454 C 490.520 233.161, 482.304 231.020, 464.810 227.383 C 450.121 224.329, 439.365 221.614, 438.862 220.833 C 438.390 220.100, 426.903 200.673, 413.334 177.661 C 395.197 146.902, 388.030 135.582, 386.267 134.911 C 384.949 134.410, 378.499 134, 371.935 134 L 360 134 360 120.674 C 360 102.489, 360.568 103, 340.360 103 C 320.453 103, 321 102.497, 321 120.814 L 321 134 307.635 134 C 295.628 134, 294.002 134.211, 291.635 136.073 L 289 138.145 289 193.573 L 289 249 274.020 249 L 259.039 249 258.770 177.911 L 258.500 106.823 256.139 104.911 C 253.853 103.060, 250.846 103, 160.500 103 C 70.155 103, 67.147 103.060, 64.861 104.911 M 77 156 L 77 194 115 194 L 153 194 153 156 L 153 118 115 118 L 77 118 77 156 M 168 156 L 168 194 206 194 L 244 194 244 156 L 244 118 206 118 L 168 118 168 156 M 336 126 L 336 134 340.500 134 L 345 134 345 126 L 345 118 340.500 118 L 336 118 336 126 M 303 232.500 L 303 316 321.340 316 L 339.679 316 344.290 310.062 C 359.381 290.629, 385.324 282.043, 409 288.646 C 421.448 292.117, 435.276 301.727, 442.105 311.652 L 445.096 316 462.048 316 L 479 316 479 307 L 479 298 464.573 298 C 450.177 298, 450.141 297.994, 448.073 295.365 C 446.182 292.961, 446 291.394, 446 277.500 C 446 263.606, 446.182 262.039, 448.073 259.635 C 450.141 257.006, 450.177 257, 464.573 257 L 479 257 479 251.146 L 479 245.292 455.750 240.645 L 432.500 235.999 378.924 235.999 L 325.349 236 323.174 233.686 C 321.037 231.410, 321 230.837, 321 199.841 C 321 169.064, 321.050 168.264, 323.103 166.405 C 325.051 164.641, 327.530 164.463, 356.483 164 L 387.759 163.500 383.630 156.261 L 379.500 149.022 341.250 149.011 L 303 149 303 232.500 M 336 199.986 L 336 221 378.607 221 C 412.290 221, 421.110 220.738, 420.719 219.750 C 420.447 219.063, 415.049 209.725, 408.723 199 L 397.223 179.500 366.611 179.236 L 336 178.971 336 199.986 M 77 228.500 L 77 249 115 249 L 153 249 153 228.500 L 153 208 115 208 L 77 208 77 228.500 M 168 228.500 L 168 249 206 249 L 244 249 244 228.500 L 244 208 206 208 L 168 208 168 228.500 M 323 251 C 321.889 252.111, 321 254.333, 321 256 C 321 257.667, 321.889 259.889, 323 261 C 324.765 262.765, 326.333 263, 336.345 263 C 346.444 263, 347.890 262.779, 349.512 260.987 C 351.847 258.406, 351.847 253.594, 349.512 251.013 C 347.890 249.221, 346.444 249, 336.345 249 C 326.333 249, 324.765 249.235, 323 251 M 33 289.500 L 33 316 49.952 316 L 66.904 316 69.895 311.652 C 76.724 301.727, 90.552 292.117, 103 288.646 C 126.676 282.043, 152.619 290.629, 167.710 310.062 L 172.321 316 230.660 316 L 289 316 289 289.500 L 289 263 161 263 L 33 263 33 289.500 M 461 277 L 461 283 470 283 L 479 283 479 277 L 479 271 470 271 L 461 271 461 277 M 108.112 302.581 C 91.469 307.057, 77.792 320.926, 74.061 337.112 C 71.277 349.186, 73.929 363.174, 81.014 373.784 C 85.919 381.128, 91.844 386.096, 100.567 390.178 C 109.718 394.460, 122.515 395.256, 132.641 392.172 C 156.796 384.815, 170.709 360.498, 164.469 336.542 C 157.947 311.502, 132.333 296.067, 108.112 302.581 M 383.108 302.082 C 370.625 304.533, 357.711 314.269, 351.746 325.725 C 339.124 349.969, 348.135 377.554, 372.633 389.664 C 380.339 393.473, 380.478 393.500, 392.495 393.500 C 404.512 393.500, 404.651 393.473, 412.363 389.663 C 425.316 383.265, 433.984 372.837, 437.467 359.465 C 446.109 326.287, 416.894 295.447, 383.108 302.082 M 113.500 320.884 C 99.985 324.433, 91.057 336.664, 92.264 349.976 C 93.177 360.048, 98.192 367.441, 107.146 371.915 C 121.949 379.312, 139.248 372.645, 144.976 357.333 C 148.551 347.780, 146.856 337.697, 140.410 330.166 C 134.086 322.778, 122.071 318.634, 113.500 320.884 M 386.500 320.884 C 373.945 324.181, 365 335.522, 365 348.144 C 365 362.359, 378.062 375.074, 392.500 374.914 C 403.081 374.797, 411.612 369.863, 416.351 361.118 C 425.920 343.464, 414.673 322.310, 394.789 320.562 C 391.880 320.306, 388.150 320.451, 386.500 320.884 M 33 348 L 33 365 46.561 365 L 60.123 365 59.311 360.250 C 58.289 354.263, 58.262 340.827, 59.262 335.250 L 60.024 331 46.512 331 L 33 331 33 348 M 179.364 333.750 C 180.942 341.011, 181.119 351.831, 179.765 358.250 L 178.341 365 256.118 365 L 333.896 365 332.787 361.820 C 331.461 358.014, 331.175 342.400, 332.311 335.750 L 333.123 331 255.945 331 L 178.767 331 179.364 333.750 M 452.738 335.250 C 453.738 340.827, 453.711 354.263, 452.689 360.250 L 451.877 365 465.439 365 L 479 365 479 348 L 479 331 465.488 331 L 451.976 331 452.738 335.250 M 113.367 336.918 C 108.979 339.593, 107 342.812, 107 347.272 C 107 354.942, 111.985 360, 119.546 360 C 129.367 360, 135.155 349.686, 130.040 341.299 C 126.358 335.259, 119.180 333.373, 113.367 336.918 M 385.912 337.280 C 384.052 338.534, 381.967 340.672, 381.279 342.030 C 378.435 347.650, 380.801 355.657, 386.190 358.647 C 389.343 360.397, 395.483 360.319, 399.033 358.483 C 404.890 355.454, 406.987 345.795, 402.912 340.615 C 398.352 334.819, 391.546 333.484, 385.912 337.280" stroke="none" fill="currentColor" fill-rule="evenodd"/></svg>