<svg xmlns="http://www.w3.org/2000/svg" fill="none" viewBox="0 0 200 200" version="1.1"><path d="" stroke="none" fill="currentColor" fill-rule="evenodd"/><path d="M 168 35.500 C 168 39.167, 167.667 40, 166.200 40 C 162.936 40, 162 42.161, 162 49.700 L 162 57 165.500 57 L 169 57 169 52.066 C 169 47.428, 169.164 47.114, 171.750 46.816 C 174.457 46.505, 174.505 46.379, 174.792 38.750 L 175.084 31 171.542 31 C 168.011 31, 168 31.014, 168 35.500 M 187 35.500 C 187 39.167, 186.667 40, 185.200 40 C 181.936 40, 181 42.161, 181 49.700 L 181 57 184.500 57 L 188 57 188 52.066 C 188 47.428, 188.164 47.114, 190.750 46.816 C 193.457 46.505, 193.505 46.379, 193.792 38.750 L 194.084 31 190.542 31 C 187.011 31, 187 31.014, 187 35.500 M 118 64.445 L 118 69.890 124.250 73.195 L 130.500 76.500 130.764 107.250 L 131.029 138 159.514 138 L 188 138 188 115.500 L 188 93 169.607 93 C 153.757 93, 151.130 92.781, 150.607 91.418 C 150.273 90.548, 150 82.898, 150 74.418 L 150 59 134 59 L 118 59 118 64.445 M 138 68.500 C 138 70.500, 138.500 71, 140.500 71 C 142.500 71, 143 70.500, 143 68.500 C 143 66.500, 142.500 66, 140.500 66 C 138.500 66, 138 66.500, 138 68.500 M 168.667 68.667 C 168.300 69.033, 168 70.822, 168 72.641 C 168 75.274, 168.587 76.252, 170.879 77.437 C 174.090 79.098, 175 80.786, 175 85.082 C 175 87.750, 175.300 88, 178.500 88 C 181.967 88, 182 87.959, 182 83.621 C 182 79.699, 182.313 79.113, 185 78 C 187.687 76.887, 188 76.301, 188 72.379 L 188 68 178.667 68 C 173.533 68, 169.033 68.300, 168.667 68.667 M 31 103 L 31 113 53 113 L 75 113 75 103 L 75 93 53 93 L 31 93 31 103 M 81 103 L 81 113 103 113 L 125 113 125 103 L 125 93 103 93 L 81 93 81 103 M 38 103 C 38 105.533, 38.389 106, 40.500 106 C 42.611 106, 43 105.533, 43 103 C 43 100.467, 42.611 100, 40.500 100 C 38.389 100, 38 100.467, 38 103 M 50 103 C 50 105.667, 50.333 106, 53 106 C 55.667 106, 56 105.667, 56 103 C 56 100.333, 55.667 100, 53 100 C 50.333 100, 50 100.333, 50 103 M 63 103 C 63 105.533, 63.389 106, 65.500 106 C 67.611 106, 68 105.533, 68 103 C 68 100.467, 67.611 100, 65.500 100 C 63.389 100, 63 100.467, 63 103 M 88 103 C 88 105.533, 88.389 106, 90.500 106 C 92.611 106, 93 105.533, 93 103 C 93 100.467, 92.611 100, 90.500 100 C 88.389 100, 88 100.467, 88 103 M 100 103 C 100 105.667, 100.333 106, 103 106 C 105.667 106, 106 105.667, 106 103 C 106 100.333, 105.667 100, 103 100 C 100.333 100, 100 100.333, 100 103 M 113 103 C 113 105.533, 113.389 106, 115.500 106 C 117.611 106, 118 105.533, 118 103 C 118 100.467, 117.611 100, 115.500 100 C 113.389 100, 113 100.467, 113 103 M 150 106 L 150 112 153 112 L 156 112 156 106 L 156 100 153 100 L 150 100 150 106 M 163 106 C 163 111.733, 163.111 112, 165.500 112 C 167.889 112, 168 111.733, 168 106 C 168 100.267, 167.889 100, 165.500 100 C 163.111 100, 163 100.267, 163 106 M 175 106 L 175 112 178 112 L 181 112 181 106 L 181 100 178 100 L 175 100 175 106 M 31 121.500 L 31 125 37.077 125 L 43.153 125 42.870 128.293 C 42.713 130.104, 43.184 133.029, 43.914 134.793 L 45.243 138 60.121 138 L 75 138 75 128 L 75 118 53 118 L 31 118 31 121.500 M 81 128 L 81 138 103 138 L 125 138 125 128 L 125 118 103 118 L 81 118 81 128 M 50 128 C 50 130.667, 50.333 131, 53 131 C 55.667 131, 56 130.667, 56 128 C 56 125.333, 55.667 125, 53 125 C 50.333 125, 50 125.333, 50 128 M 63 128 C 63 130.533, 63.389 131, 65.500 131 C 67.611 131, 68 130.533, 68 128 C 68 125.467, 67.611 125, 65.500 125 C 63.389 125, 63 125.467, 63 128 M 88 128 C 88 130.533, 88.389 131, 90.500 131 C 92.611 131, 93 130.533, 93 128 C 93 125.467, 92.611 125, 90.500 125 C 88.389 125, 88 125.467, 88 128 M 100 128 C 100 130.667, 100.333 131, 103 131 C 105.667 131, 106 130.667, 106 128 C 106 125.333, 105.667 125, 103 125 C 100.333 125, 100 125.333, 100 128 M 113 128 C 113 130.533, 113.389 131, 115.500 131 C 117.611 131, 118 130.533, 118 128 C 118 125.467, 117.611 125, 115.500 125 C 113.389 125, 113 125.467, 113 128 M 14.997 132.503 C 12.790 135.163, 13.625 138.170, 21.657 156.500 L 29.544 174.500 102.934 174.500 L 176.325 174.500 181.162 160.026 C 183.823 152.066, 186 144.978, 186 144.276 C 186 143.253, 171.726 143, 114.014 143 L 42.029 143 39 137 L 35.971 131 26.108 131 C 18.552 131, 15.953 131.352, 14.997 132.503" stroke="none" fill="currentColor" fill-rule="evenodd"/></svg>