<svg xmlns="http://www.w3.org/2000/svg" fill="none" viewBox="0 0 200 200" version="1.1"><path d="" stroke="none" fill="currentColor" fill-rule="evenodd"/><path d="M 37.500 21.389 C 29.288 24.976, 23.028 34.371, 23.010 43.134 C 22.996 49.430, 28.889 61.012, 37.696 72 C 44.498 80.487, 44.517 80.500, 49.593 80.797 C 55.685 81.152, 57.953 79.388, 56.239 75.626 C 55.332 73.634, 55.810 72.420, 59.676 66.906 C 67.443 55.828, 70.393 49.220, 70.350 43 C 70.287 33.998, 64.853 25.711, 56.500 21.879 C 51.770 19.709, 41.927 19.455, 37.500 21.389 M 40.481 28.394 C 36.292 30.219, 31.393 36.092, 30.619 40.217 C 30.221 42.340, 30.552 45.312, 31.478 47.938 C 32.960 52.139, 39.540 62.616, 44.391 68.500 C 46.832 71.462, 46.885 71.474, 48.487 69.500 C 53.552 63.262, 62.022 49.401, 62.577 46.443 C 64.993 33.563, 52.340 23.226, 40.481 28.394 M 38.766 34.918 C 35.806 37.563, 35.500 38.367, 35.500 43.500 C 35.500 48.633, 35.806 49.437, 38.766 52.082 C 46.445 58.944, 58.400 53.718, 58.400 43.500 C 58.400 33.282, 46.445 28.056, 38.766 34.918 M 43.571 40.571 C 42.707 41.436, 42 42.754, 42 43.500 C 42 44.246, 42.707 45.564, 43.571 46.429 C 46.592 49.449, 51 47.711, 51 43.500 C 51 39.289, 46.592 37.551, 43.571 40.571 M 60.978 74.817 C 59.067 76.364, 58.907 76.958, 59.902 78.817 C 60.930 80.739, 61.900 81, 68 81 C 73.819 81, 75.095 80.691, 75.961 79.072 C 76.529 78.012, 76.738 76.482, 76.427 75.671 C 75.228 72.545, 64.514 71.953, 60.978 74.817 M 81.797 73.680 C 79.552 74.271, 78.520 77.717, 80.040 79.548 C 81.276 81.037, 91.217 81.621, 94.418 80.393 C 96.634 79.543, 96.398 75.283, 94.066 74.035 C 92.156 73.013, 85.106 72.809, 81.797 73.680 M 100.750 74.080 C 98.729 75.257, 98.459 78.059, 100.200 79.800 C 101.766 81.366, 113.234 81.366, 114.800 79.800 C 116.602 77.998, 116.246 75.202, 114.066 74.035 C 111.601 72.716, 103.043 72.745, 100.750 74.080 M 118.034 78.459 C 117.309 79.333, 117.083 81.099, 117.470 82.864 C 117.844 84.567, 117.671 86.086, 117.059 86.464 C 115.521 87.414, 115.762 91.557, 117.436 92.947 C 119.178 94.393, 122.419 92.954, 123.977 90.043 C 127.512 83.437, 122.313 73.303, 118.034 78.459 M 58.040 89.452 C 57.377 90.251, 56.991 91.713, 57.181 92.702 C 57.480 94.253, 58.621 94.500, 65.500 94.500 C 72.379 94.500, 73.520 94.253, 73.819 92.702 C 74.469 89.326, 72.123 88, 65.500 88 C 61.252 88, 58.858 88.466, 58.040 89.452 M 77.384 89.442 C 77.080 90.234, 76.986 91.697, 77.176 92.692 C 77.468 94.217, 78.720 94.545, 85.181 94.791 C 92.201 95.057, 92.895 94.907, 93.502 92.993 C 94.669 89.317, 92.386 88, 84.846 88 C 79.752 88, 77.792 88.379, 77.384 89.442 M 96.930 89.584 C 95.979 90.730, 95.905 91.628, 96.662 92.834 C 98.221 95.316, 110.960 95.776, 112.687 93.413 C 113.551 92.232, 113.623 91.163, 112.926 89.862 C 112.103 88.325, 110.737 88, 105.087 88 C 100.064 88, 97.895 88.421, 96.930 89.584 M 47.570 91.922 C 45.354 94.371, 44.430 101.066, 45.923 103.856 C 47.411 106.637, 51.632 106.735, 52.497 104.009 C 52.845 102.914, 52.825 101.526, 52.453 100.924 C 52.081 100.322, 52.586 98.328, 53.574 96.492 C 55.072 93.710, 55.154 92.890, 54.064 91.577 C 52.299 89.451, 49.681 89.590, 47.570 91.922 M 55.200 104.200 C 54.540 104.860, 54 106.120, 54 107 C 54 107.880, 54.540 109.140, 55.200 109.800 C 56.766 111.366, 68.234 111.366, 69.800 109.800 C 71.602 107.998, 71.246 105.202, 69.066 104.035 C 66.409 102.613, 56.671 102.729, 55.200 104.200 M 74.571 104.571 C 70.971 108.172, 74.238 111, 82 111 C 85.991 111, 88.358 110.499, 89.429 109.429 C 93.029 105.828, 89.762 103, 82 103 C 78.009 103, 75.642 103.501, 74.571 104.571 M 94.750 104.057 C 92.641 105.313, 92.468 108.314, 94.413 109.928 C 96.658 111.791, 108.043 110.896, 109.391 108.750 C 111.452 105.468, 108.982 103.528, 102.396 103.257 C 99.153 103.123, 95.713 103.483, 94.750 104.057 M 114.750 104.080 C 112.729 105.257, 112.459 108.059, 114.200 109.800 C 115.766 111.366, 127.234 111.366, 128.800 109.800 C 130.602 107.998, 130.246 105.202, 128.066 104.035 C 125.601 102.716, 117.043 102.745, 114.750 104.080 M 133.632 105.115 C 130.801 109.156, 132.437 110.375, 142.181 111.481 C 147.070 112.037, 147.999 111.870, 148.846 110.288 C 150.288 107.593, 148.551 105.247, 144.222 104.045 C 138.446 102.441, 135.281 102.760, 133.632 105.115 M 149.709 112.624 C 149.319 113.014, 149 114.833, 149 116.667 C 149 119.010, 148.540 120, 147.450 120 C 146.598 120, 144.461 120.726, 142.700 121.614 C 132.381 126.819, 127.342 137.784, 130.413 148.350 C 133.207 157.960, 149.157 180, 153.317 180 C 154.874 180, 157.173 177.960, 160.925 173.250 C 175.842 154.522, 179.728 143.604, 175.103 133.419 C 172.628 127.971, 166.578 122.253, 161.760 120.810 C 158.786 119.919, 157.442 118.779, 156.168 116.068 C 154.581 112.689, 151.361 110.972, 149.709 112.624 M 144.984 128.854 C 140.641 131.165, 137.038 137.272, 137.016 142.360 C 136.997 146.913, 140.788 154.441, 148.086 164.346 L 153.131 171.192 158.094 164.846 C 165.324 155.601, 170.410 144.995, 169.620 140.810 C 168.728 136.089, 165.542 131.301, 161.759 128.995 C 157.534 126.418, 149.685 126.353, 144.984 128.854 M 147.190 133.026 C 145.329 134.160, 143.194 136.676, 142.314 138.772 C 140.200 143.807, 142.061 149.468, 146.898 152.717 C 150.864 155.382, 153.959 155.588, 158.393 153.484 C 167.014 149.393, 167.167 136.680, 158.643 132.635 C 154.099 130.479, 151.205 130.577, 147.190 133.026 M 149.407 141.513 C 149.046 142.954, 149.303 144.660, 150.011 145.513 C 151.782 147.647, 155.739 147.357, 157 145 C 158.619 141.975, 156.627 139, 152.984 139 C 150.672 139, 149.902 139.540, 149.407 141.513" stroke="none" fill="currentColor" fill-rule="evenodd"/></svg>