<svg xmlns="http://www.w3.org/2000/svg" fill="none" viewBox="0 0 256 256" version="1.1"><path d="M 94.185 4.989 C 89.617 6.071, 86.075 9.692, 84.753 14.633 L 83.641 18.791 73.071 19.153 C 63.688 19.475, 61.969 19.827, 57.777 22.284 C 54.707 24.084, 52.081 26.707, 50.277 29.777 L 47.500 34.500 47.222 102.500 L 46.944 170.500 57.347 180.857 L 67.750 191.215 49.875 219.280 C 40.044 234.715, 32 247.926, 32 248.637 C 32 249.348, 32.870 250.395, 33.934 250.965 C 36.002 252.071, 60.746 252.418, 63.455 251.379 C 64.346 251.037, 65.744 249.462, 66.563 247.879 L 68.051 245 128 245 L 187.949 245 189.437 247.879 C 190.256 249.462, 191.654 251.037, 192.545 251.379 C 195.254 252.418, 219.998 252.071, 222.066 250.965 C 223.130 250.395, 224 249.304, 224 248.540 C 224 247.776, 216.296 235.079, 206.880 220.325 C 197.464 205.571, 189.566 193.004, 189.329 192.397 C 189.093 191.791, 193.437 186.779, 198.983 181.260 L 209.066 171.226 208.783 102.784 L 208.500 34.341 205.459 29.421 C 200.753 21.806, 195.967 19.628, 182.929 19.166 L 172.359 18.791 171.247 14.633 C 169.877 9.511, 166.408 6.115, 161.347 4.940 C 156.653 3.851, 98.816 3.893, 94.185 4.989 M 92.655 12.829 C 91.745 13.835, 91 15.635, 91 16.829 L 91 19 128 19 L 165 19 165 16.655 C 165 15.365, 164.177 13.565, 163.171 12.655 C 161.546 11.184, 157.610 11, 127.826 11 C 96.626 11, 94.196 11.126, 92.655 12.829 M 63.283 26.635 C 59.129 28.064, 57.248 29.619, 55.434 33.128 C 54.259 35.400, 54 43.125, 54 75.950 L 54 116 128.543 116 L 203.086 116 202.793 76.250 C 202.469 32.313, 202.516 32.640, 195.909 27.935 L 192.788 25.713 129.687 25.606 C 84.952 25.531, 65.625 25.830, 63.283 26.635 M 66.200 38.200 C 64.832 39.568, 64.458 89.599, 65.800 91.710 C 66.223 92.376, 70.603 94.916, 75.535 97.356 C 109.239 114.028, 146.865 114.008, 180.493 97.301 C 185.439 94.843, 189.819 92.308, 190.227 91.666 C 191.550 89.587, 191.150 39.550, 189.800 38.200 C 188.067 36.467, 67.933 36.467, 66.200 38.200 M 54 145.273 L 54 168.547 61.772 176.273 L 69.544 184 127.890 184 L 186.235 184 194.118 176.894 L 202 169.788 202 145.894 L 202 122 128 122 L 54 122 54 145.273 M 88.564 131.123 C 72.710 134.839, 68.598 156.750, 82.080 165.672 C 94.894 174.152, 112 165.343, 112 150.264 C 112 140.866, 106.466 133.553, 97.500 131.104 C 95.300 130.503, 93.275 130.054, 93 130.106 C 92.725 130.158, 90.729 130.616, 88.564 131.123 M 157.728 131.327 C 145.313 135.189, 140.004 149.308, 146.887 160.160 C 156.943 176.017, 182 168.956, 182 150.264 C 182 140.600, 176.213 133.209, 166.980 131.081 C 161.727 129.871, 162.473 129.851, 157.728 131.327 M 86.984 137.863 C 83.385 139.788, 80.314 144.006, 79.968 147.500 C 79.404 153.189, 80.141 155.376, 83.882 159.118 C 87.374 162.609, 88.277 163, 92.848 163 C 97.099 163, 98.504 162.496, 101.441 159.918 C 108.973 153.304, 107.552 141.862, 98.674 137.649 C 94.174 135.514, 91.279 135.567, 86.984 137.863 M 157.164 137.689 C 148.425 141.995, 147.093 153.362, 154.559 159.918 C 157.465 162.469, 158.918 163, 163 163 C 177.146 163, 181.462 143.718, 168.674 137.649 C 164.322 135.585, 161.415 135.595, 157.164 137.689 M 59.112 216.883 C 49.700 231.668, 42 244.043, 42 244.383 C 42 244.722, 46.211 245, 51.357 245 L 60.714 245 64.820 235.750 C 69.742 224.662, 79.072 203.901, 82.517 196.368 C 83.883 193.383, 85 190.729, 85 190.470 C 85 190.212, 83.025 190, 80.612 190 L 76.223 190 59.112 216.883 M 171.167 190.893 C 171.350 191.384, 176.861 203.759, 183.414 218.393 L 195.328 245 205.113 245 L 214.899 245 197.365 217.500 L 179.832 190 175.332 190 C 172.858 190, 170.983 190.402, 171.167 190.893 M 91.035 192.934 C 90.466 193.998, 90 195.123, 90 195.434 C 90 195.745, 107.100 196, 128 196 C 148.900 196, 166 195.745, 166 195.434 C 166 195.123, 165.534 193.998, 164.965 192.934 C 163.971 191.077, 162.499 191, 128 191 C 93.501 191, 92.029 191.077, 91.035 192.934 M 85.161 205.547 C 84.522 206.948, 84 208.298, 84 208.547 C 84 208.796, 103.800 209, 128 209 C 152.200 209, 172 208.796, 172 208.547 C 172 208.298, 171.478 206.948, 170.839 205.547 L 169.679 203 128 203 L 86.321 203 85.161 205.547 M 80.161 217.547 C 79.522 218.948, 79 220.298, 79 220.547 C 79 220.796, 101.050 221, 128 221 C 154.950 221, 177 220.796, 177 220.547 C 177 220.298, 176.478 218.948, 175.839 217.547 L 174.679 215 128 215 L 81.321 215 80.161 217.547 M 73.244 232.267 C 72.003 235.145, 70.991 237.838, 70.994 238.250 C 70.997 238.662, 96.650 239, 128 239 C 159.350 239, 185.003 238.662, 185.006 238.250 C 185.009 237.838, 183.997 235.145, 182.756 232.267 L 180.500 227.034 128 227.034 L 75.500 227.034 73.244 232.267" stroke="none" fill="#2d2329" fill-rule="evenodd"/><path d="M 92.655 12.829 C 91.745 13.835, 91 15.635, 91 16.829 L 91 19 128 19 L 165 19 165 16.655 C 165 15.365, 164.177 13.565, 163.171 12.655 C 161.546 11.184, 157.610 11, 127.826 11 C 96.626 11, 94.196 11.126, 92.655 12.829 M 63.283 26.635 C 59.129 28.064, 57.248 29.619, 55.434 33.128 C 54.259 35.400, 54 43.125, 54 75.950 L 54 116 128.543 116 L 203.086 116 202.793 76.250 C 202.469 32.313, 202.516 32.640, 195.909 27.935 L 192.788 25.713 129.687 25.606 C 84.952 25.531, 65.625 25.830, 63.283 26.635 M 66.200 38.200 C 64.832 39.568, 64.458 89.599, 65.800 91.710 C 66.223 92.376, 70.603 94.916, 75.535 97.356 C 109.239 114.028, 146.865 114.008, 180.493 97.301 C 185.439 94.843, 189.819 92.308, 190.227 91.666 C 191.550 89.587, 191.150 39.550, 189.800 38.200 C 188.067 36.467, 67.933 36.467, 66.200 38.200 M 54 145.273 L 54 168.547 61.772 176.273 L 69.544 184 127.890 184 L 186.235 184 194.118 176.894 L 202 169.788 202 145.894 L 202 122 128 122 L 54 122 54 145.273 M 88.564 131.123 C 72.710 134.839, 68.598 156.750, 82.080 165.672 C 94.894 174.152, 112 165.343, 112 150.264 C 112 140.866, 106.466 133.553, 97.500 131.104 C 95.300 130.503, 93.275 130.054, 93 130.106 C 92.725 130.158, 90.729 130.616, 88.564 131.123 M 157.728 131.327 C 145.313 135.189, 140.004 149.308, 146.887 160.160 C 156.943 176.017, 182 168.956, 182 150.264 C 182 140.600, 176.213 133.209, 166.980 131.081 C 161.727 129.871, 162.473 129.851, 157.728 131.327 M 86.984 137.863 C 83.385 139.788, 80.314 144.006, 79.968 147.500 C 79.404 153.189, 80.141 155.376, 83.882 159.118 C 87.374 162.609, 88.277 163, 92.848 163 C 97.099 163, 98.504 162.496, 101.441 159.918 C 108.973 153.304, 107.552 141.862, 98.674 137.649 C 94.174 135.514, 91.279 135.567, 86.984 137.863 M 157.164 137.689 C 148.425 141.995, 147.093 153.362, 154.559 159.918 C 157.465 162.469, 158.918 163, 163 163 C 177.146 163, 181.462 143.718, 168.674 137.649 C 164.322 135.585, 161.415 135.595, 157.164 137.689 M 59.112 216.883 C 49.700 231.668, 42 244.043, 42 244.383 C 42 244.722, 46.211 245, 51.357 245 L 60.714 245 64.820 235.750 C 69.742 224.662, 79.072 203.901, 82.517 196.368 C 83.883 193.383, 85 190.729, 85 190.470 C 85 190.212, 83.025 190, 80.612 190 L 76.223 190 59.112 216.883 M 171.167 190.893 C 171.350 191.384, 176.861 203.759, 183.414 218.393 L 195.328 245 205.113 245 L 214.899 245 197.365 217.500 L 179.832 190 175.332 190 C 172.858 190, 170.983 190.402, 171.167 190.893 M 85.161 205.547 C 84.522 206.948, 84 208.298, 84 208.547 C 84 208.796, 103.800 209, 128 209 C 152.200 209, 172 208.796, 172 208.547 C 172 208.298, 171.478 206.948, 170.839 205.547 L 169.679 203 128 203 L 86.321 203 85.161 205.547 M 73.244 232.267 C 72.003 235.145, 70.991 237.838, 70.994 238.250 C 70.997 238.662, 96.650 239, 128 239 C 159.350 239, 185.003 238.662, 185.006 238.250 C 185.009 237.838, 183.997 235.145, 182.756 232.267 L 180.500 227.034 128 227.034 L 75.500 227.034 73.244 232.267" stroke="none" fill="currentColor" fill-rule="evenodd"/></svg>